<?xml version="1.0" encoding="utf-8"?><svg xmlns="http://www.w3.org/2000/svg" xmlns:xlink="http://www.w3.org/1999/xlink"><symbol viewBox="0 0 42 42" id="ic-google" xmlns="http://www.w3.org/2000/svg"><path d="M21 0C9.5 0 0 9.5 0 21s9.5 21 21 21 21-9.5 21-21S32.5 0 21 0zm3.1 22.4c-.1 1.7-.8 3.4-2 4.6-3.1 3-8.7 3-11.8-.1-3.2-3.2-3.2-8.7.1-11.8 2.4-2.4 5.8-2.9 8.8-1.7l1.2.7 1.3.9-2.1 2.1-.8-.5c-1.8-1.2-4.5-.9-6.2.8-2 2-2.1 5.5 0 7.6 2 2.1 5.5 2.1 7.4 0 .5-.5 1-1.3 1.2-2.1v-.3h-4.7V20H24l.1.7v1.7zm9.9-.2h-2.4v2.4h-2.4v-2.4h-2.4v-2.4h2.4v-2.4h2.4v2.4H34v2.4z"/></symbol><symbol viewBox="0 0 42 42" id="ic-instagram" xmlns="http://www.w3.org/2000/svg"><path clip-rule="evenodd" d="M21 42c11.598 0 21-9.402 21-21S32.598 0 21 0 0 9.402 0 21s9.402 21 21 21zm-6.662-21a6.655 6.655 0 016.665-6.666A6.655 6.655 0 0127.668 21a6.655 6.655 0 01-6.665 6.666A6.655 6.655 0 0114.338 21zm2.332 0a4.341 4.341 0 004.333 4.334A4.341 4.341 0 0025.336 21a4.338 4.338 0 00-4.333-4.334A4.338 4.338 0 0016.67 21zm11.27-5.384a1.555 1.555 0 100-3.11 1.555 1.555 0 000 3.11zm3.869-5.424c1.525 1.52 2.001 3.364 2.1 5.447.122 2.147.122 8.575 0 10.722-.105 2.082-.58 3.927-2.1 5.447-1.52 1.526-3.364 2.002-5.447 2.1-2.146.123-8.578.123-10.724 0-2.083-.104-3.921-.58-5.447-2.1-1.525-1.52-2.001-3.364-2.1-5.447-.121-2.147-.121-8.58 0-10.728.105-2.082.575-3.927 2.1-5.447 1.526-1.52 3.37-1.996 5.447-2.095 2.146-.121 8.578-.121 10.724 0 2.083.105 3.927.58 5.447 2.1zm-3.144 20.943a4.387 4.387 0 002.471-2.471c.582-1.463.55-4.663.529-6.738a82.957 82.957 0 01-.007-.926c0-.27.003-.582.007-.926.02-2.074.053-5.27-.529-6.738a4.387 4.387 0 00-2.47-2.471c-1.468-.58-4.683-.549-6.756-.529-.337.003-.643.006-.907.006-.27 0-.582-.003-.926-.006-2.073-.021-5.269-.054-6.736.529a4.387 4.387 0 00-2.471 2.471c-.58 1.468-.548 4.683-.528 6.757.003.337.006.643.006.907 0 .27-.004.582-.007.926-.021 2.074-.053 5.27.529 6.738a4.387 4.387 0 002.47 2.471c1.468.58 4.683.549 6.756.529.337-.004.643-.006.907-.006.269 0 .582.003.926.006 2.073.021 5.269.054 6.736-.529z"/></symbol><symbol viewBox="0 0 42 42" id="ic-linkedin" xmlns="http://www.w3.org/2000/svg"><path d="M21 0C9.4 0 0 9.4 0 21s9.4 21 21 21 21-9.4 21-21S32.6 0 21 0zm-5.2 31.2h-5.3V12.8h5.3v18.4zm-2.5-19.5c-1.4 0-2.5-1.1-2.5-2.5s1.1-2.5 2.5-2.5 2.5 1.1 2.5 2.5-1.2 2.5-2.5 2.5zm20.8 19.5h-5.3V19.8c0-1.3-.4-2.3-2-2.3-2.7 0-3.2 2.3-3.2 2.3v11.4h-5.3V12.8h5.3v1.8c.8-.6 2.6-1.8 5.3-1.8 1.7 0 5.3 1 5.3 7.2v11.2z"/></symbol><symbol viewBox="0 0 60 13" id="ic-logo" xmlns="http://www.w3.org/2000/svg"><path d="M20.486 11.189h-1.354V7.714h-3.496v3.475h-1.36v-7.82h1.36v3.254h3.496V3.37h1.354v7.82zm7.101-6.725h-2.439v6.725H23.8V4.464h-2.417V3.37h6.204v1.095zm2.793-1.095l2.255 5.994 2.25-5.994h1.757v7.82H35.29V8.61l.134-3.448-2.31 6.026h-.972l-2.304-6.021.134 3.443v2.578h-1.353v-7.82h1.761zm9.232 6.735h3.55v1.085h-4.908v-7.82h1.358v6.735zM46.61 8.39h-2.819V7.339h2.82V8.39zm5.775-.692h-3.212v2.406h3.754v1.085h-5.113v-7.82h5.076v1.095h-3.717v2.16h3.212v1.074zm5.736 1.477c0-.344-.122-.609-.365-.795-.24-.186-.675-.374-1.305-.564-.63-.19-1.132-.401-1.504-.634-.713-.448-1.069-1.031-1.069-1.75 0-.631.256-1.15.768-1.559.516-.408 1.184-.612 2.004-.612.544 0 1.029.1 1.455.3.426.201.76.488 1.004.86.244.37.366.78.366 1.23H58.12c0-.408-.129-.727-.387-.956-.254-.233-.619-.349-1.095-.349-.444 0-.79.095-1.037.285-.243.19-.365.455-.365.795 0 .286.132.526.397.72.265.19.702.375 1.31.558.61.18 1.098.385 1.467.618.369.229.64.494.811.795.172.297.258.646.258 1.047 0 .652-.25 1.17-.752 1.558-.498.383-1.174.574-2.03.574a3.867 3.867 0 01-1.563-.311c-.473-.211-.842-.502-1.107-.87a2.172 2.172 0 01-.392-1.29h1.36c0 .445.146.788.44 1.032.293.243.714.365 1.262.365.472 0 .827-.095 1.063-.285a.932.932 0 00.36-.762z"/><path fill-rule="evenodd" clip-rule="evenodd" d="M7.49 4.445L4.962.917l-.573 4.3L.196 6.523l3.96 1.84-.066 4.335 3.022-3.163 4.153 1.374-2.093-3.796 2.633-3.484-4.316.817zm1.933.657l-2.391.453-1.4-1.955-.317 2.383-2.324.723 2.194 1.02-.036 2.4 1.674-1.752 2.3.762-1.159-2.103 1.459-1.93z"/></symbol><symbol viewBox="0 0 10 6" id="ic-more" xmlns="http://www.w3.org/2000/svg"><path fill-rule="evenodd" clip-rule="evenodd" d="M9.53.47a.75.75 0 00-1.06 0L5 3.94 1.53.47A.75.75 0 00.47 1.53l4 4a.75.75 0 001.06 0l4-4a.75.75 0 000-1.06z"/></symbol><symbol viewBox="0 0 42 42" id="ic-twitter" xmlns="http://www.w3.org/2000/svg"><path d="M21 0C9.4 0 0 9.4 0 21s9.4 21 21 21 21-9.4 21-21S32.6 0 21 0zm9.4 16.2v.6c0 6.4-4.9 13.7-13.8 13.7-2.7 0-5.3-.8-7.4-2.2.4 0 .8.1 1.2.1 2.3 0 4.3-.8 6-2.1-2.1 0-3.9-1.4-4.5-3.4.3.1.6.1.9.1.4 0 .9-.1 1.3-.2-2.2-.4-3.9-2.4-3.9-4.7V18c.7.4 1.4.6 2.2.6-1.3-.9-2.1-2.3-2.1-4 0-.9.2-1.7.7-2.4 2.4 2.9 5.9 4.8 10 5.1-.1-.4-.1-.7-.1-1.1 0-2.7 2.2-4.8 4.8-4.8 1.4 0 2.6.6 3.5 1.5 1.1-.2 2.1-.6 3.1-1.2-.4 1.1-1.1 2.1-2.1 2.7 1-.1 1.9-.4 2.8-.8-.9 1.1-1.7 1.9-2.6 2.6z"/></symbol></svg>