<svg width="41" height="46" viewBox="0 0 41 46" fill="none" xmlns="http://www.w3.org/2000/svg">
<path fill-rule="evenodd" clip-rule="evenodd" d="M38.6818 23.759C37.5322 23.759 36.5909 24.6904 36.5909 25.8279C36.5909 34.6735 29.326 41.862 20.3863 41.862C11.4466 41.862 4.18177 34.6735 4.18177 25.8279C4.18177 18.1724 9.61708 11.7598 16.8312 10.1554L14.479 13.1557C13.748 14.0346 13.9562 15.3802 14.8445 16.053C15.21 16.3642 15.6817 16.4672 16.1513 16.4672C16.7781 16.4672 17.405 16.2086 17.8236 15.6914L23.0509 9.02016C23.7308 8.14129 23.6267 6.8987 22.7364 6.17541L16.0471 0.483839C15.1589 -0.239452 13.852 -0.13642 13.068 0.689923C12.337 1.5688 12.4411 2.86187 13.2762 3.58723L16.1512 6.01778C6.95227 7.98366 0 16.1037 0 25.8281C0 36.9485 9.14773 46 20.3864 46C31.625 46 40.7727 36.9485 40.7727 25.8281C40.7727 24.6906 39.8314 23.7592 38.6818 23.7592L38.6818 23.759Z" fill="#A738AC"/>
</svg>
