<svg width="13" height="13" viewBox="0 0 13 13" fill="none" xmlns="http://www.w3.org/2000/svg">
<path fill-rule="evenodd" clip-rule="evenodd" d="M0.285739 0.285739C0.666724 -0.0952463 1.28389 -0.0952463 1.66488 0.285739L6.26213 4.88298L10.8594 0.285739C11.2404 -0.0952463 11.8575 -0.0952463 12.2385 0.285739C12.6195 0.666724 12.6195 1.28389 12.2385 1.66488L7.64127 6.26213L12.2385 10.8594C12.6195 11.2404 12.6195 11.8575 12.2385 12.2385C11.8575 12.6195 11.2404 12.6195 10.8594 12.2385L6.26213 7.64127L1.66488 12.2385C1.28389 12.6195 0.666724 12.6195 0.285739 12.2385C-0.0952463 11.8575 -0.0952463 11.2404 0.285739 10.8594L4.88298 6.26213L0.285739 1.66488C-0.0952463 1.28389 -0.0952463 0.666724 0.285739 0.285739Z" fill="white"/>
</svg>
