<svg width="15" height="15" viewBox="0 0 15 15" fill="none" xmlns="http://www.w3.org/2000/svg">
<path id="Instagram" fill-rule="evenodd" clip-rule="evenodd" d="M7.50001 0C5.46312 0 5.20771 0.00863368 4.40776 0.0451333C3.60947 0.0815436 3.06427 0.20834 2.58721 0.393755C2.09402 0.585393 1.67577 0.841843 1.25879 1.25879C0.841843 1.67577 0.585393 2.09402 0.393755 2.58721C0.20834 3.06427 0.0815436 3.60947 0.0451333 4.40776C0.00863368 5.20771 0 5.46312 0 7.50001C0 9.53688 0.00863368 9.79229 0.0451333 10.5922C0.0815436 11.3905 0.20834 11.9357 0.393755 12.4128C0.585393 12.906 0.841843 13.3242 1.25879 13.7412C1.67577 14.1582 2.09402 14.4146 2.58721 14.6063C3.06427 14.7917 3.60947 14.9185 4.40776 14.9549C5.20771 14.9914 5.46312 15 7.50001 15C9.53688 15 9.79229 14.9914 10.5922 14.9549C11.3905 14.9185 11.9357 14.7917 12.4128 14.6063C12.906 14.4146 13.3242 14.1582 13.7412 13.7412C14.1582 13.3242 14.4146 12.906 14.6063 12.4128C14.7917 11.9357 14.9185 11.3905 14.9549 10.5922C14.9914 9.79229 15 9.53688 15 7.50001C15 5.46312 14.9914 5.20771 14.9549 4.40776C14.9185 3.60947 14.7917 3.06427 14.6063 2.58721C14.4146 2.09402 14.1582 1.67577 13.7412 1.25879C13.3242 0.841843 12.906 0.585393 12.4128 0.393755C11.9357 0.20834 11.3905 0.0815436 10.5922 0.0451333C9.79229 0.00863368 9.53688 0 7.50001 0ZM7.50001 1.35135C9.50258 1.35135 9.7398 1.359 10.5306 1.39508C11.2619 1.42843 11.659 1.55061 11.9233 1.65332C12.2734 1.78937 12.5232 1.9519 12.7856 2.21436C13.0481 2.47679 13.2106 2.72663 13.3467 3.07671C13.4494 3.34099 13.5716 3.73811 13.6049 4.46936C13.641 5.2602 13.6487 5.49742 13.6487 7.50001C13.6487 9.50258 13.641 9.7398 13.6049 10.5306C13.5716 11.2619 13.4494 11.659 13.3467 11.9233C13.2106 12.2734 13.0481 12.5232 12.7856 12.7856C12.5232 13.0481 12.2734 13.2106 11.9233 13.3467C11.659 13.4494 11.2619 13.5716 10.5306 13.6049C9.73992 13.641 9.50273 13.6487 7.50001 13.6487C5.49727 13.6487 5.26011 13.641 4.46936 13.6049C3.73811 13.5716 3.34099 13.4494 3.07671 13.3467C2.72663 13.2106 2.47679 13.0481 2.21436 12.7856C1.95193 12.5232 1.78937 12.2734 1.65332 11.9233C1.55061 11.659 1.42843 11.2619 1.39508 10.5306C1.359 9.7398 1.35135 9.50258 1.35135 7.50001C1.35135 5.49742 1.359 5.2602 1.39508 4.46936C1.42843 3.73811 1.55061 3.34099 1.65332 3.07671C1.78937 2.72663 1.9519 2.47679 2.21436 2.21436C2.47679 1.9519 2.72663 1.78937 3.07671 1.65332C3.34099 1.55061 3.73811 1.42843 4.46936 1.39508C5.2602 1.359 5.49742 1.35135 7.50001 1.35135ZM3.64865 7.50002C3.64865 5.37294 5.37294 3.64865 7.50002 3.64865C9.62706 3.64865 11.3513 5.37294 11.3513 7.50002C11.3513 9.62706 9.62706 11.3513 7.50002 11.3513C5.37294 11.3513 3.64865 9.62706 3.64865 7.50002ZM7.50001 10C6.11928 10 5 8.88072 5 7.50001C5 6.11928 6.11928 5 7.50001 5C8.88072 5 10 6.11928 10 7.50001C10 8.88072 8.88072 10 7.50001 10ZM11.5035 4.39648C12.0006 4.39648 12.4035 3.99355 12.4035 3.49649C12.4035 2.99943 12.0006 2.59647 11.5035 2.59647C11.0065 2.59647 10.6035 2.99943 10.6035 3.49649C10.6035 3.99355 11.0065 4.39648 11.5035 4.39648Z" fill="black"/>
</svg>
