<svg width="25" height="24" viewBox="0 0 25 24" fill="none" xmlns="http://www.w3.org/2000/svg">
<path d="M5.8252 10.3867C7.7452 14.16 10.8385 17.24 14.6119 19.1733L17.5452 16.24C17.9052 15.88 18.4385 15.76 18.9052 15.92C20.3985 16.4133 22.0119 16.68 23.6652 16.68C24.3985 16.68 24.9985 17.28 24.9985 18.0133V22.6667C24.9985 23.4 24.3985 24 23.6652 24C11.1452 24 0.998535 13.8533 0.998535 1.33333C0.998535 0.6 1.59854 0 2.33187 0H6.99854C7.73187 0 8.33187 0.6 8.33187 1.33333C8.33187 3 8.59854 4.6 9.09187 6.09333C9.23853 6.56 9.13187 7.08 8.75853 7.45333L5.8252 10.3867Z" fill="#4F8066"/>
</svg>
