<svg width="46" height="46" viewBox="0 0 46 46" fill="none" xmlns="http://www.w3.org/2000/svg">
<path fill-rule="evenodd" clip-rule="evenodd" d="M23 0C21.6849 0 20.6873 0.674923 19.8114 1.26748L19.7278 1.32401C18.8318 1.92927 18.009 2.4636 17.5338 2.59131C17.0585 2.71902 16.0774 2.66696 14.9992 2.59131L14.9044 2.58461C13.8484 2.50984 12.6409 2.42433 11.5001 3.08308C10.3549 3.74437 9.82504 4.83458 9.36111 5.78908L9.3249 5.86353C8.85201 6.83528 8.40521 7.71006 8.0576 8.0576C7.71 8.40515 6.83528 8.85201 5.86353 9.3249L5.7889 9.36119C4.83444 9.8251 3.74434 10.3549 3.08308 11.5001C2.40872 12.6679 2.49562 13.9057 2.57098 14.9792L2.57239 14.9992L2.57524 15.0398C2.6498 16.1019 2.71738 17.0645 2.59131 17.5338C2.46363 18.009 1.92927 18.8317 1.32401 19.7278L1.26739 19.8116C0.674855 20.6875 0 21.685 0 23C0 24.3151 0.674974 25.3128 1.26755 26.1887L1.32401 26.2722C1.92927 27.1682 2.4636 27.991 2.59131 28.4662C2.71738 28.9354 2.64984 29.8975 2.5753 30.9593L2.57239 31.0008L2.57099 31.0208C2.49562 32.0943 2.40873 33.3321 3.08308 34.4999C3.74437 35.6451 4.83459 36.175 5.78909 36.6389L5.86353 36.6751C6.83528 37.148 7.71006 37.5948 8.0576 37.9424C8.40515 38.29 8.85201 39.1647 9.3249 40.1365L9.36119 40.2111C9.8251 41.1656 10.3549 42.2557 11.5001 42.9169C12.6679 43.5913 13.9057 43.5044 14.9792 43.429L14.9992 43.4276L15.0398 43.4248C16.1019 43.3502 17.0645 43.2826 17.5338 43.4087C18.009 43.5364 18.8317 44.0707 19.7278 44.676L19.8116 44.7326C20.6875 45.3251 21.685 46 23 46C24.3151 46 25.3128 45.325 26.1887 44.7324L26.2722 44.676C27.1682 44.0707 27.991 43.5364 28.4662 43.4087C28.9354 43.2826 29.8975 43.3502 30.9593 43.4247H30.9594L31.0008 43.4276L31.0208 43.429C32.0944 43.5044 33.3321 43.5913 34.4999 42.9169C35.6451 42.2556 36.175 41.1654 36.6389 40.2109L36.6751 40.1365C37.148 39.1647 37.5948 38.2899 37.9424 37.9424C38.29 37.5949 39.1647 37.148 40.1365 36.6751L40.2111 36.6388C41.1655 36.1749 42.2557 35.6451 42.9169 34.4999C43.5757 33.3591 43.4902 32.1515 43.4154 31.0956L43.4087 31.0008C43.333 29.9227 43.281 28.9415 43.4087 28.4662C43.5364 27.991 44.0707 27.1683 44.676 26.2722L44.7326 26.1884C45.3251 25.3125 46 24.315 46 23C46 21.6849 45.325 20.6872 44.7324 19.8113L44.676 19.7278C44.0707 18.8318 43.5364 18.009 43.4087 17.5338C43.281 17.0585 43.333 16.0774 43.4087 14.9992L43.4154 14.9044C43.4902 13.8484 43.5757 12.6409 42.9169 11.5001C42.2556 10.3549 41.1654 9.82504 40.2109 9.3611L40.1365 9.3249C39.1647 8.85201 38.2899 8.40521 37.9424 8.0576C37.5949 7.71 37.148 6.83528 36.6751 5.86353L36.6388 5.78892C36.1749 4.83446 35.6451 3.74434 34.4999 3.08308C33.3591 2.42432 32.1515 2.50984 31.0956 2.58461L31.0008 2.59131C29.9227 2.66696 28.9415 2.71898 28.4662 2.59131C27.991 2.46363 27.1683 1.92927 26.2722 1.32401L26.1884 1.26739C25.3125 0.674855 24.315 0 23 0ZM23 2.42105C23.3688 2.42105 24.097 2.7686 24.9293 3.32894C25.0717 3.42482 25.2157 3.52561 25.3627 3.62843C26.0746 4.12651 26.8544 4.67209 27.8421 4.93663C28.8269 5.2004 29.7746 5.11539 30.6384 5.0379L30.6385 5.03789C30.8198 5.02162 30.9975 5.00568 31.171 4.99338C32.1711 4.92245 32.9703 4.99811 33.2894 5.18252C33.6086 5.36694 34.0602 6.01948 34.5 6.92265C34.574 7.07459 34.6471 7.23155 34.7217 7.39169L34.7217 7.39178L34.7217 7.39184C35.0905 8.18357 35.4956 9.0531 36.2212 9.77876C36.9469 10.5044 37.8164 10.9094 38.6081 11.2782L38.6082 11.2782C38.7683 11.3529 38.9253 11.426 39.0773 11.5C39.9805 11.9398 40.633 12.3914 40.8174 12.7105C41.0019 13.0297 41.0775 13.8289 41.0066 14.8289C40.9943 15.0025 40.9783 15.1802 40.9621 15.3616C40.8846 16.2254 40.7996 17.1731 41.0633 18.1579C41.3279 19.1455 41.8734 19.9252 42.3714 20.637C42.4742 20.784 42.5751 20.9282 42.671 21.0707C43.2313 21.9029 43.5789 22.6311 43.5789 23C43.5789 23.3688 43.2314 24.097 42.671 24.9292C42.5752 25.0716 42.4744 25.2157 42.3715 25.3627C41.8735 26.0746 41.3279 26.8544 41.0633 27.8421C40.7996 28.8269 40.8846 29.7746 40.9621 30.6384C40.9783 30.8198 40.9943 30.9975 41.0066 31.171C41.0775 32.1711 40.9995 32.9703 40.8174 33.2894C40.633 33.6086 39.9805 34.0602 39.0773 34.4999C38.9253 34.5739 38.7683 34.6471 38.6082 34.7217L38.6081 34.7217C37.8164 35.0905 36.9469 35.4955 36.2212 36.2212C35.4956 36.9468 35.0905 37.8164 34.7217 38.6081L34.7217 38.6081C34.6471 38.7683 34.574 38.9253 34.5 39.0773C34.0602 39.9805 33.6086 40.633 33.2894 40.8174C32.9703 41.0018 32.1711 41.0775 31.171 41.0066C30.9975 40.9943 30.8198 40.9783 30.6384 40.962C29.7746 40.8845 28.8269 40.7995 27.8421 41.0633C26.8545 41.3278 26.0748 41.8733 25.363 42.3713C25.2159 42.4742 25.0718 42.5751 24.9293 42.671C24.097 43.2313 23.3688 43.5789 23 43.5789C22.6312 43.5789 21.903 43.2313 21.0707 42.671C20.9283 42.5751 20.7843 42.4743 20.6373 42.3715C19.9254 41.8734 19.1456 41.3278 18.1579 41.0633C17.1731 40.7995 16.2254 40.8845 15.3616 40.962C15.1802 40.9783 15.0025 40.9943 14.829 41.0066C13.8289 41.0775 13.0297 40.9995 12.7106 40.8174C12.3914 40.633 11.9398 39.9805 11.5 39.0773C11.426 38.9253 11.3529 38.7683 11.2783 38.6081L11.2783 38.6081C10.9095 37.8164 10.5044 36.9468 9.77879 36.2212C9.05313 35.4955 8.1836 35.0905 7.39187 34.7217L7.39181 34.7217L7.39169 34.7216L7.39156 34.7216L7.39131 34.7214L7.39097 34.7213C7.23109 34.6468 7.07438 34.5738 6.92268 34.4999C6.01951 34.0602 5.36698 33.6086 5.18255 33.2894C4.99813 32.9703 4.92248 32.1711 4.99341 31.171C5.00572 30.9974 5.02166 30.8197 5.03793 30.6384L5.03793 30.6383C5.11543 29.7745 5.20045 28.8269 4.93666 27.8421C4.67214 26.8545 4.12664 26.0748 3.62864 25.3629C3.52576 25.2159 3.4249 25.0717 3.32897 24.9292C2.76868 24.097 2.42108 23.3688 2.42108 23C2.42108 22.6311 2.76863 21.9029 3.32897 21.0707C3.42485 20.9283 3.52564 20.7842 3.62846 20.6373C4.12654 19.9254 4.67212 19.1456 4.93666 18.1579C5.20043 17.1731 5.11542 16.2254 5.03793 15.3615L5.03792 15.3615C5.02165 15.1801 5.00572 15.0025 4.99341 14.8289C4.92248 13.8289 4.99814 13.0297 5.18255 12.7105C5.36697 12.3914 6.01951 11.9398 6.92268 11.5C7.07467 11.426 7.23168 11.3529 7.39188 11.2782C8.18361 10.9094 9.05313 10.5044 9.77879 9.77876C10.5044 9.0531 10.9095 8.18358 11.2783 7.39185C11.3529 7.23165 11.426 7.07464 11.5 6.92265C11.9398 6.01948 12.3914 5.36694 12.7106 5.18252C13.0297 4.9981 13.8289 4.92245 14.829 4.99338C15.0025 5.00569 15.1802 5.02163 15.3616 5.0379C16.2254 5.1154 17.1731 5.20042 18.1579 4.93663C19.1455 4.67211 19.9252 4.12661 20.637 3.62861C20.7841 3.52573 20.9282 3.42487 21.0707 3.32894C21.903 2.76865 22.6312 2.42105 23 2.42105ZM31.8331 12.4458C32.0198 12.2496 32.2657 12.1243 32.5329 12.0865L32.5329 12.0865C33.0554 12.0108 33.5661 12.2827 33.7955 12.758C34.0248 13.2355 33.9208 13.8053 33.5354 14.1671L14.167 33.5354C13.94 33.7671 13.6303 33.8995 13.304 33.9019C12.9777 33.9043 12.6657 33.7742 12.4387 33.5425C12.2094 33.3108 12.084 32.9987 12.0888 32.6725C12.0935 32.3462 12.2283 32.0365 12.4647 31.8142L31.8331 12.4458ZM16.9474 12.1054C14.2876 12.1054 12.1053 14.2877 12.1053 16.9475C12.1053 19.6073 14.2876 21.7896 16.9474 21.7896C19.6072 21.7896 21.7895 19.6073 21.7895 16.9475C21.7895 14.2877 19.6072 12.1054 16.9474 12.1054ZM19.3684 16.9475C19.3684 15.5951 18.2998 14.5264 16.9474 14.5264C15.595 14.5264 14.5263 15.5951 14.5263 16.9475C14.5263 18.2999 15.595 19.3685 16.9474 19.3685C18.2998 19.3685 19.3684 18.2999 19.3684 16.9475ZM29.0526 24.2106C26.3928 24.2106 24.2105 26.3929 24.2105 29.0527C24.2105 31.7125 26.3928 33.8948 29.0526 33.8948C31.7124 33.8948 33.8947 31.7125 33.8947 29.0527C33.8947 26.3929 31.7124 24.2106 29.0526 24.2106ZM31.4737 29.0527C31.4737 27.7003 30.405 26.6317 29.0526 26.6317C27.7002 26.6317 26.6316 27.7003 26.6316 29.0527C26.6316 30.4051 27.7002 31.4738 29.0526 31.4738C30.405 31.4738 31.4737 30.4051 31.4737 29.0527Z" fill="#A738AC"/>
</svg>
