<svg width="15" height="13" viewBox="0 0 15 13" fill="none" xmlns="http://www.w3.org/2000/svg">
<path id="Twitter" fill-rule="evenodd" clip-rule="evenodd" d="M15 1.53897C14.4488 1.8 13.8554 1.97653 13.233 2.0554C13.8686 1.64977 14.3564 1.00657 14.5862 0.240376C13.991 0.615962 13.3333 0.889202 12.6307 1.03568C12.0708 0.398122 11.2705 0 10.3848 0C8.68639 0 7.30851 1.46948 7.30851 3.28169C7.30851 3.53897 7.33492 3.78873 7.38774 4.02911C4.83008 3.89202 2.56295 2.58685 1.0442 0.599061C0.779186 1.08545 0.627751 1.64977 0.627751 2.2507C0.627751 3.38873 1.17098 4.39343 1.99683 4.98216C1.49322 4.9662 1.01778 4.8169 0.602219 4.57277V4.61315C0.602219 6.20376 1.66314 7.53052 3.07184 7.83099C2.81388 7.90798 2.54182 7.94648 2.26096 7.94648C2.06286 7.94648 1.86917 7.92676 1.68163 7.88826C2.07343 9.19155 3.20919 10.1408 4.55626 10.1662C3.50326 11.0469 2.17556 11.5718 0.734284 11.5718C0.486001 11.5718 0.240359 11.5568 0 11.5268C1.36204 12.4563 2.98028 13 4.71738 13C10.3786 13 13.4733 8 13.4733 3.66291C13.4733 3.52019 13.4707 3.37746 13.4654 3.23756C14.0667 2.77465 14.5888 2.19718 15 1.53897Z" fill="black"/>
</svg>
