<svg width="20" height="17" viewBox="0 0 20 17" fill="none" xmlns="http://www.w3.org/2000/svg">
<path id="Twitter" fill-rule="evenodd" clip-rule="evenodd" d="M20 2.0125C19.2651 2.35385 18.4739 2.58469 17.644 2.68783C18.4915 2.15739 19.1419 1.31629 19.4483 0.314337C18.6547 0.805489 17.7778 1.1628 16.841 1.35435C16.0944 0.520621 15.0273 0 13.8463 0C11.5819 0 9.74467 1.92163 9.74467 4.29144C9.74467 4.62788 9.77989 4.9545 9.85033 5.26883C6.4401 5.08956 3.41727 3.38281 1.39226 0.783387C1.03892 1.41943 0.837002 2.15739 0.837002 2.94323C0.837002 4.43142 1.56131 5.74525 2.66244 6.51513C1.99096 6.49426 1.35705 6.29902 0.802958 5.97978V6.03258C0.802958 8.1126 2.21753 9.8476 4.09579 10.2405C3.75183 10.3412 3.38909 10.3915 3.01462 10.3915C2.75048 10.3915 2.49222 10.3658 2.24218 10.3154C2.76457 12.0197 4.27892 13.2611 6.07501 13.2943C4.67101 14.446 2.90075 15.1324 0.979046 15.1324C0.648001 15.1324 0.320479 15.1127 0 15.0735C1.81605 16.2891 3.9737 17 6.28984 17C13.8381 17 17.9644 10.4615 17.9644 4.78996C17.9644 4.60332 17.9609 4.41669 17.9539 4.23373C18.7556 3.62839 19.4518 2.87324 20 2.0125Z" fill="white"/>
</svg>
